<?xml version="1.0" standalone="no"?>
<!DOCTYPE svg PUBLIC "-//W3C//DTD SVG 20010904//EN"
 "http://www.w3.org/TR/2001/REC-SVG-20010904/DTD/svg10.dtd">
<svg version="1.0" xmlns="http://www.w3.org/2000/svg"
 width="512.000000pt" height="512.000000pt" viewBox="0 0 512.000000 512.000000"
 preserveAspectRatio="xMidYMid meet">
<metadata>
Created by potrace 1.16, written by Peter Selinger 2001-2019
</metadata>
<g transform="translate(0.000000,512.000000) scale(0.100000,-0.100000)"
fill="#000000" stroke="none">
<path d="M571 5100 c-147 -39 -256 -104 -366 -222 -83 -88 -136 -174 -173
-283 l-27 -80 0 -1955 0 -1955 27 -80 c41 -120 92 -199 193 -300 101 -101 180
-152 300 -193 l80 -27 1955 0 1955 0 80 27 c120 41 199 92 300 193 101 101
152 180 193 300 l27 80 0 1955 0 1955 -27 80 c-41 120 -92 199 -193 300 -101
101 -180 152 -300 193 l-80 27 -1935 2 c-1887 2 -1937 2 -2009 -17z m3372
-617 c212 -60 385 -202 482 -395 85 -170 80 -74 80 -1533 0 -1446 5 -1342 -74
-1509 -72 -154 -193 -277 -346 -351 -175 -86 -64 -80 -1525 -80 -1461 0 -1350
-6 -1525 80 -152 74 -266 187 -340 340 -86 175 -80 64 -80 1525 0 1461 -6
1350 80 1525 113 231 334 387 589 415 39 4 636 7 1326 6 l1255 -1 78 -22z"/>
<path d="M1211 4190 c-119 -43 -207 -123 -264 -239 l-32 -66 0 -1325 0 -1325
32 -66 c58 -119 148 -198 269 -239 58 -20 84 -20 1364 -18 l1305 3 70 34 c92
45 171 124 216 216 l34 70 0 1325 0 1325 -34 70 c-45 92 -124 171 -216 216
l-70 34 -1310 2 c-1273 2 -1312 2 -1364 -17z m2503 -306 c55 -19 132 -90 161
-149 15 -30 20 -61 20 -125 0 -99 -17 -142 -80 -205 -63 -63 -106 -80 -205
-80 -99 0 -142 17 -205 80 -63 63 -80 106 -80 205 0 93 19 145 73 203 74 79
206 108 316 71z m-1039 -288 c202 -16 427 -120 599 -277 128 -117 249 -320
298 -499 20 -73 23 -109 23 -260 0 -204 -16 -281 -91 -439 -106 -224 -276
-395 -499 -502 -459 -219 -1000 -75 -1300 346 -60 83 -128 230 -157 335 -20
74 -23 108 -23 260 0 203 16 280 89 436 59 124 115 204 210 300 177 176 404
283 644 303 48 4 98 6 112 5 14 -2 57 -5 95 -8z"/>
<path d="M2371 3290 c-41 -10 -113 -37 -160 -61 -70 -35 -104 -61 -182 -139
-82 -82 -102 -108 -141 -190 -67 -137 -81 -209 -76 -372 6 -149 26 -223 94
-347 57 -102 197 -236 304 -289 117 -58 218 -82 350 -82 132 0 232 23 350 82
69 34 103 60 180 138 78 77 104 111 138 180 59 119 82 218 82 354 0 136 -22
226 -82 346 -34 69 -61 103 -138 180 -77 78 -111 104 -180 138 -47 23 -121 51
-164 62 -103 26 -270 26 -375 0z"/>
</g>
</svg>
