<?xml version="1.0" standalone="no"?>
<!DOCTYPE svg PUBLIC "-//W3C//DTD SVG 20010904//EN"
 "http://www.w3.org/TR/2001/REC-SVG-20010904/DTD/svg10.dtd">
<svg version="1.0" xmlns="http://www.w3.org/2000/svg"
 width="512.000000pt" height="512.000000pt" viewBox="0 0 512.000000 512.000000"
 preserveAspectRatio="xMidYMid meet">
<metadata>
Created by potrace 1.16, written by Peter Selinger 2001-2019
</metadata>
<g transform="translate(0.000000,512.000000) scale(0.100000,-0.100000)"
fill="#000000" stroke="none">
<path d="M228 5096 c-72 -30 -128 -74 -167 -132 -66 -100 -61 94 -59 -2419 l3
-2280 27 -57 c34 -73 103 -142 176 -176 l57 -27 2295 0 2295 0 57 27 c73 34
142 103 176 176 l27 57 0 2295 0 2295 -27 57 c-34 73 -103 142 -176 176 l-57
27 -2285 2 -2285 3 -57 -24z m2819 -1431 c432 -9 694 -33 807 -75 69 -26 161
-108 199 -178 61 -111 87 -315 94 -736 8 -480 -22 -815 -86 -951 -61 -131
-171 -204 -346 -230 -422 -62 -1869 -63 -2296 0 -52 8 -121 24 -153 35 -77 29
-166 113 -206 193 -58 120 -90 414 -90 837 0 402 32 711 85 827 33 74 115 157
189 193 73 36 185 55 416 71 196 13 796 27 995 22 77 -1 253 -5 392 -8z"/>
<path d="M2240 2560 c0 -264 3 -480 7 -480 10 0 833 474 833 480 0 6 -823 480
-833 480 -4 0 -7 -216 -7 -480z"/>
</g>
</svg>
