<?xml version="1.0" standalone="no"?>
<!DOCTYPE svg PUBLIC "-//W3C//DTD SVG 20010904//EN"
 "http://www.w3.org/TR/2001/REC-SVG-20010904/DTD/svg10.dtd">
<svg version="1.0" xmlns="http://www.w3.org/2000/svg"
 width="512.000000pt" height="512.000000pt" viewBox="0 0 512.000000 512.000000"
 preserveAspectRatio="xMidYMid meet">
<metadata>
Created by potrace 1.16, written by Peter Selinger 2001-2019
</metadata>
<g transform="translate(0.000000,512.000000) scale(0.100000,-0.100000)"
fill="#000000" stroke="none">
<path d="M512 5100 c-236 -62 -432 -259 -492 -496 -20 -76 -20 -119 -20 -2043
0 -2187 -5 -2022 70 -2176 66 -137 178 -249 315 -315 154 -75 -11 -70 2175
-70 2186 0 2021 -5 2175 70 179 87 316 254 365 446 20 76 20 119 20 2044 0
1925 0 1968 -20 2044 -61 239 -257 435 -496 496 -76 20 -118 20 -2048 19
-1906 0 -1973 -1 -2044 -19z m3578 -1912 l0 -973 -417 -417 -418 -418 -315 0
-315 0 -210 -210 -210 -210 -202 0 -203 0 0 210 0 210 -385 0 -385 0 0 1107 0
1107 106 283 107 283 1423 0 1424 0 0 -972z"/>
<path d="M1510 2875 l0 -1015 315 0 315 0 0 -212 0 -213 213 213 212 212 385
0 385 0 243 243 242 242 0 773 0 772 -1155 0 -1155 0 0 -1015z m1050 30 l0
-415 -135 0 -135 0 0 415 0 415 135 0 135 0 0 -415z m760 0 l0 -415 -135 0
-135 0 0 415 0 415 135 0 135 0 0 -415z"/>
</g>
</svg>
