<?xml version="1.0" standalone="no"?>
<!DOCTYPE svg PUBLIC "-//W3C//DTD SVG 20010904//EN"
 "http://www.w3.org/TR/2001/REC-SVG-20010904/DTD/svg10.dtd">
<svg version="1.0" xmlns="http://www.w3.org/2000/svg"
 width="512.000000pt" height="512.000000pt" viewBox="0 0 512.000000 512.000000"
 preserveAspectRatio="xMidYMid meet">
<metadata>
Created by potrace 1.16, written by Peter Selinger 2001-2019
</metadata>
<g transform="translate(0.000000,512.000000) scale(0.100000,-0.100000)"
fill="#000000" stroke="none">
<path d="M401 5104 c-179 -48 -339 -209 -386 -389 -13 -52 -15 -305 -15 -2155
0 -2312 -5 -2147 63 -2274 41 -78 145 -182 223 -223 127 -68 -38 -63 2274 -63
2312 0 2147 -5 2274 63 78 41 182 145 223 223 68 127 63 -38 63 2274 0 2312 5
2147 -63 2274 -41 78 -145 182 -223 223 -127 68 39 63 -2279 62 -1801 0 -2108
-2 -2154 -15z m1684 -1248 l40 -87 60 6 c186 20 252 24 365 24 117 0 261 -9
378 -25 l51 -6 50 100 50 100 113 -24 c197 -43 362 -95 581 -185 54 -22 62
-30 116 -114 266 -410 429 -857 487 -1336 18 -144 24 -521 10 -622 -7 -55 -10
-59 -59 -96 -127 -93 -339 -215 -508 -291 -94 -43 -347 -140 -364 -140 -11 0
-195 295 -195 313 0 2 21 12 48 22 70 27 239 113 248 126 8 14 -48 69 -70 69
-7 0 -39 -11 -70 -25 -514 -227 -1113 -238 -1646 -31 -161 63 -153 62 -189 35
-17 -12 -31 -30 -31 -39 0 -11 45 -38 143 -85 78 -38 144 -70 147 -73 9 -7
-172 -312 -185 -312 -19 0 -268 96 -369 141 -156 71 -271 135 -433 242 -111
73 -123 84 -130 116 -15 73 -7 530 11 666 60 460 219 897 471 1298 63 102 71
110 123 133 237 105 682 230 707 199 6 -7 29 -52 50 -99z"/>
<path d="M1865 2791 c-171 -45 -285 -238 -254 -431 21 -132 88 -228 194 -281
59 -29 70 -31 147 -27 98 4 155 28 217 92 147 151 144 413 -5 563 -25 24 -66
54 -92 65 -50 23 -157 32 -207 19z"/>
<path d="M3070 2784 c-99 -36 -172 -109 -209 -210 -73 -194 2 -409 171 -494
52 -26 72 -30 138 -30 66 0 86 4 138 30 263 132 264 552 1 686 -67 34 -174 42
-239 18z"/>
</g>
</svg>
