<?xml version="1.0" standalone="no"?>
<!DOCTYPE svg PUBLIC "-//W3C//DTD SVG 20010904//EN"
 "http://www.w3.org/TR/2001/REC-SVG-20010904/DTD/svg10.dtd">
<svg version="1.0" xmlns="http://www.w3.org/2000/svg"
 width="512.000000pt" height="512.000000pt" viewBox="0 0 512.000000 512.000000"
 preserveAspectRatio="xMidYMid meet">
<metadata>
Created by potrace 1.16, written by Peter Selinger 2001-2019
</metadata>
<g transform="translate(0.000000,512.000000) scale(0.100000,-0.100000)"
fill="#000000" stroke="none">
<path d="M401 5104 c-179 -48 -339 -209 -386 -389 -13 -52 -15 -305 -15 -2155
0 -2312 -5 -2147 63 -2274 41 -78 145 -182 223 -223 127 -68 -38 -63 2274 -63
2312 0 2147 -5 2274 63 78 41 182 145 223 223 68 127 63 -38 63 2274 0 2312 5
2147 -63 2274 -41 78 -145 182 -223 223 -127 68 39 63 -2279 62 -1801 0 -2108
-2 -2154 -15z m2870 -804 c9 -111 33 -193 88 -305 135 -273 394 -450 700 -481
l71 -7 0 -306 0 -307 -62 3 c-257 14 -513 95 -721 229 -37 24 -72 44 -77 44
-5 0 -10 -292 -12 -732 -3 -720 -4 -734 -26 -811 -60 -215 -149 -372 -297
-523 -371 -379 -918 -458 -1381 -199 -208 116 -393 326 -489 553 -145 343
-113 725 86 1048 73 119 243 290 360 362 98 60 221 113 336 143 63 18 110 22
248 23 l170 1 3 -314 2 -313 -22 6 c-13 3 -57 9 -98 12 -94 8 -218 -20 -299
-69 -297 -176 -350 -588 -106 -832 277 -277 744 -168 877 205 l23 65 3 1293 2
1292 308 -2 307 -3 6 -75z"/>
</g>
</svg>
